<svg width="264" height="60" viewBox="0 0 264 60" fill="none" xmlns="http://www.w3.org/2000/svg">
<g clip-path="url(#clip0_1_34)">
<path d="M30 0C28.295 0 26.6599 0.677294 25.4543 1.88289C24.2487 3.08848 23.5714 4.72361 23.5714 6.42857V15C23.5714 16.705 24.2487 18.3401 25.4543 19.5457C26.6599 20.7513 28.295 21.4286 30 21.4286C31.705 21.4286 33.3401 20.7513 34.5457 19.5457C35.7513 18.3401 36.4286 16.705 36.4286 15V6.42857C36.4286 4.72361 35.7513 3.08848 34.5457 1.88289C33.3401 0.677294 31.705 0 30 0Z" fill="#FF0000"/>
<path d="M15 23.5714H6.42857C4.72361 23.5714 3.08848 24.2487 1.88289 25.4543C0.677294 26.6599 0 28.295 0 30C0 31.705 0.677294 33.3401 1.88289 34.5457C3.08848 35.7513 4.72361 36.4286 6.42857 36.4286H15C16.705 36.4286 18.3401 35.7513 19.5457 34.5457C20.7513 33.3401 21.4286 31.705 21.4286 30C21.4286 28.295 20.7513 26.6599 19.5457 25.4543C18.3401 24.2487 16.705 23.5714 15 23.5714Z" fill="#FF0000"/>
<path d="M30 38.5714C28.295 38.5714 26.6599 39.2487 25.4543 40.4543C24.2487 41.6599 23.5714 43.295 23.5714 45V53.5714C23.5714 55.2764 24.2487 56.9115 25.4543 58.1171C26.6599 59.3227 28.295 60 30 60C31.705 60 33.3401 59.3227 34.5457 58.1171C35.7513 56.9115 36.4286 55.2764 36.4286 53.5714V45C36.4286 43.295 35.7513 41.6599 34.5457 40.4543C33.3401 39.2487 31.705 38.5714 30 38.5714Z" fill="#FF0000"/>
<path d="M53.5714 23.5714H45C43.295 23.5714 41.6599 24.2487 40.4543 25.4543C39.2487 26.6599 38.5714 28.295 38.5714 30C38.5714 31.705 39.2487 33.3401 40.4543 34.5457C41.6599 35.7513 43.295 36.4286 45 36.4286H53.5714C55.2764 36.4286 56.9115 35.7513 58.1171 34.5457C59.3227 33.3401 60 31.705 60 30C60 28.295 59.3227 26.6599 58.1171 25.4543C56.9115 24.2487 55.2764 23.5714 53.5714 23.5714Z" fill="#FF0000"/>
<path d="M43.5857 18.5786C43.8677 18.5802 44.1473 18.5261 44.4084 18.4195C44.6695 18.3129 44.9069 18.1557 45.1071 17.9571L52.95 10.1143C53.3507 9.71078 53.5746 9.16463 53.5726 8.596C53.5706 8.02736 53.3428 7.48281 52.9393 7.08214C52.5358 6.68148 51.9896 6.45751 51.421 6.45952C50.8524 6.46153 50.3078 6.68935 49.9071 7.09286L42.0857 15C41.8126 15.3019 41.6311 15.6754 41.5626 16.0767C41.494 16.478 41.5412 16.8905 41.6985 17.2659C41.8559 17.6414 42.117 17.9643 42.4512 18.1967C42.7854 18.4292 43.179 18.5616 43.5857 18.5786Z" fill="#FF0000"/>
<path d="M15 17.9571C15.4111 18.1967 15.8903 18.2925 16.362 18.2296C16.8336 18.1667 17.2709 17.9486 17.6049 17.6097C17.9389 17.2708 18.1506 16.8304 18.2066 16.3578C18.2626 15.8853 18.1598 15.4076 17.9143 15L10.0929 7.09286C9.69219 6.68935 9.14764 6.46153 8.57901 6.45952C8.01037 6.45751 7.46422 6.68148 7.06072 7.08214C6.65721 7.48281 6.42939 8.02736 6.42738 8.596C6.42537 9.16463 6.64934 9.71078 7.05 10.1143L15 17.9571Z" fill="#FF0000"/>
<path d="M15 42.1071L7.05 49.95C6.64934 50.3535 6.42537 50.8996 6.42738 51.4683C6.42939 52.0369 6.65721 52.5815 7.06072 52.9821C7.46422 53.3828 8.01037 53.6068 8.57901 53.6048C9.14764 53.6027 9.69219 53.3749 10.0929 52.9714L17.9143 45.15C18.2062 44.7437 18.3467 44.248 18.3114 43.749C18.2762 43.25 18.0675 42.779 17.7215 42.4177C17.3754 42.0564 16.9139 41.8275 16.4168 41.7708C15.9198 41.7141 15.4185 41.8331 15 42.1071Z" fill="#FF0000"/>
<path d="M45.1071 42.1071C44.7036 41.7065 44.1575 41.4825 43.5889 41.4845C43.0202 41.4865 42.4757 41.7144 42.075 42.1179C41.6743 42.5214 41.4504 43.0675 41.4524 43.6361C41.4544 44.2048 41.6822 44.7493 42.0857 45.15L49.9071 52.9714C50.315 53.3647 50.8621 53.5804 51.4286 53.5714C51.8542 53.5739 52.2709 53.4496 52.6256 53.2143C52.9803 52.979 53.2569 52.6434 53.4201 52.2503C53.5833 51.8572 53.6258 51.4244 53.542 51.0071C53.4583 50.5898 53.2522 50.2069 52.95 49.9071L45.1071 42.1071Z" fill="#FF0000"/>
<path d="M34.2857 30C34.2857 28.8634 33.8342 27.7733 33.0305 26.9695C32.2267 26.1658 31.1366 25.7143 30 25.7143C28.8634 25.7143 27.7733 26.1658 26.9695 26.9695C26.1658 27.7733 25.7143 28.8634 25.7143 30C25.7143 31.1366 26.1658 32.2267 26.9695 33.0305C27.7733 33.8342 28.8634 34.2857 30 34.2857C31.1366 34.2857 32.2267 33.8342 33.0305 33.0305C33.8342 32.2267 34.2857 31.1366 34.2857 30Z" fill="#FF0000"/>
</g>
<path d="M94.63 2.68313C95.5833 2.68313 96.3533 3.00313 96.94 3.64313C97.5267 4.28313 97.82 5.07979 97.82 6.03313V25.9431C97.82 28.9898 97.17 31.6831 95.87 34.0231C94.57 36.3698 92.7833 38.2031 90.51 39.5231C88.2367 40.8498 85.5933 41.5131 82.58 41.5131C79.5733 41.5131 76.9267 40.8498 74.64 39.5231C72.3467 38.2031 70.55 36.3698 69.25 34.0231C67.95 31.6831 67.3 28.9898 67.3 25.9431V6.03313C67.3 5.07979 67.63 4.28313 68.29 3.64313C68.95 3.00313 69.7933 2.68313 70.82 2.68313C71.66 2.68313 72.42 3.00313 73.1 3.64313C73.78 4.28313 74.12 5.07979 74.12 6.03313V25.9431C74.12 27.7765 74.5133 29.3631 75.3 30.7031C76.0867 32.0365 77.13 33.0731 78.43 33.8131C79.73 34.5398 81.1133 34.9031 82.58 34.9031C84.16 34.9031 85.63 34.5398 86.99 33.8131C88.3433 33.0731 89.44 32.0365 90.28 30.7031C91.1267 29.3631 91.55 27.7765 91.55 25.9431V6.03313C91.55 5.07979 91.8267 4.28313 92.38 3.64313C92.9267 3.00313 93.6767 2.68313 94.63 2.68313ZM121.25 11.2531C123.963 11.2531 126.027 11.8231 127.44 12.9631C128.847 14.0965 129.817 15.6098 130.35 17.5031C130.883 19.3898 131.15 21.4898 131.15 23.8031V37.8831C131.15 38.8298 130.84 39.6265 130.22 40.2731C129.593 40.9131 128.803 41.2331 127.85 41.2331C126.897 41.2331 126.107 40.9131 125.48 40.2731C124.86 39.6265 124.55 38.8298 124.55 37.8831V23.8031C124.55 22.5898 124.393 21.4965 124.08 20.5231C123.773 19.5565 123.213 18.7765 122.4 18.1831C121.593 17.5965 120.44 17.3031 118.94 17.3031C117.473 17.3031 116.237 17.5965 115.23 18.1831C114.223 18.7765 113.453 19.5565 112.92 20.5231C112.387 21.4965 112.12 22.5898 112.12 23.8031V37.8831C112.12 38.8298 111.81 39.6265 111.19 40.2731C110.563 40.9131 109.773 41.2331 108.82 41.2331C107.867 41.2331 107.077 40.9131 106.45 40.2731C105.83 39.6265 105.52 38.8298 105.52 37.8831V15.1631C105.52 14.2098 105.83 13.4131 106.45 12.7731C107.077 12.1265 107.867 11.8031 108.82 11.8031C109.773 11.8031 110.563 12.1265 111.19 12.7731C111.81 13.4131 112.12 14.2098 112.12 15.1631V17.5231L111.3 17.3631C111.627 16.7431 112.1 16.0731 112.72 15.3531C113.347 14.6398 114.08 13.9698 114.92 13.3431C115.767 12.7231 116.72 12.2198 117.78 11.8331C118.847 11.4465 120.003 11.2531 121.25 11.2531ZM144.52 15.1631V37.8831C144.52 38.8298 144.207 39.6265 143.58 40.2731C142.96 40.9131 142.173 41.2331 141.22 41.2331C140.267 41.2331 139.477 40.9131 138.85 40.2731C138.23 39.6265 137.92 38.8298 137.92 37.8831V15.1631C137.92 14.2098 138.23 13.4131 138.85 12.7731C139.477 12.1265 140.267 11.8031 141.22 11.8031C142.173 11.8031 142.96 12.1265 143.58 12.7731C144.207 13.4131 144.52 14.2098 144.52 15.1631ZM141.16 8.23313C139.913 8.23313 139.033 8.03313 138.52 7.63313C138.007 7.22646 137.75 6.50979 137.75 5.48313V4.43313C137.75 3.37313 138.033 2.64979 138.6 2.26313C139.173 1.87646 140.047 1.68313 141.22 1.68313C142.5 1.68313 143.397 1.88646 143.91 2.29313C144.423 2.69313 144.68 3.40646 144.68 4.43313V5.48313C144.68 6.54313 144.407 7.26646 143.86 7.65313C143.307 8.03979 142.407 8.23313 141.16 8.23313ZM164.1 11.2531C166.187 11.2531 168.01 11.4731 169.57 11.9131C171.13 12.3531 172.34 12.9698 173.2 13.7631C174.06 14.5498 174.49 15.4931 174.49 16.5931C174.49 17.3265 174.27 18.0131 173.83 18.6531C173.39 19.2998 172.75 19.6231 171.91 19.6231C171.323 19.6231 170.837 19.5398 170.45 19.3731C170.063 19.2065 169.723 18.9931 169.43 18.7331C169.137 18.4798 168.79 18.2431 168.39 18.0231C168.023 17.8031 167.463 17.6298 166.71 17.5031C165.957 17.3698 165.397 17.3031 165.03 17.3031C163.163 17.3031 161.577 17.7098 160.27 18.5231C158.97 19.3298 157.973 20.4198 157.28 21.7931C156.58 23.1665 156.23 24.7498 156.23 26.5431C156.23 28.3098 156.587 29.8798 157.3 31.2531C158.02 32.6265 159.01 33.7165 160.27 34.5231C161.537 35.3298 162.997 35.7331 164.65 35.7331C165.563 35.7331 166.35 35.6765 167.01 35.5631C167.67 35.4565 168.22 35.2931 168.66 35.0731C169.173 34.7798 169.633 34.4698 170.04 34.1431C170.44 33.8098 171.043 33.6431 171.85 33.6431C172.803 33.6431 173.537 33.9465 174.05 34.5531C174.563 35.1531 174.82 35.8931 174.82 36.7731C174.82 37.6931 174.307 38.5298 173.28 39.2831C172.253 40.0365 170.907 40.6398 169.24 41.0931C167.573 41.5531 165.767 41.7831 163.82 41.7831C160.927 41.7831 158.417 41.1131 156.29 39.7731C154.163 38.4398 152.52 36.6165 151.36 34.3031C150.207 31.9965 149.63 29.4098 149.63 26.5431C149.63 23.5365 150.243 20.8898 151.47 18.6031C152.703 16.3098 154.41 14.5131 156.59 13.2131C158.77 11.9065 161.273 11.2531 164.1 11.2531ZM207.88 26.5431C207.88 29.5498 207.21 32.1998 205.87 34.4931C204.53 36.7865 202.733 38.5731 200.48 39.8531C198.227 41.1398 195.707 41.7831 192.92 41.7831C190.133 41.7831 187.61 41.1398 185.35 39.8531C183.097 38.5731 181.3 36.7865 179.96 34.4931C178.627 32.1998 177.96 29.5498 177.96 26.5431C177.96 23.5365 178.627 20.8898 179.96 18.6031C181.3 16.3098 183.097 14.5131 185.35 13.2131C187.61 11.9065 190.133 11.2531 192.92 11.2531C195.707 11.2531 198.227 11.9065 200.48 13.2131C202.733 14.5131 204.53 16.3098 205.87 18.6031C207.21 20.8898 207.88 23.5365 207.88 26.5431ZM201.28 26.5431C201.28 24.6765 200.903 23.0565 200.15 21.6831C199.397 20.3098 198.387 19.2365 197.12 18.4631C195.86 17.6898 194.46 17.3031 192.92 17.3031C191.38 17.3031 189.977 17.6898 188.71 18.4631C187.443 19.2365 186.433 20.3098 185.68 21.6831C184.933 23.0565 184.56 24.6765 184.56 26.5431C184.56 28.3765 184.933 29.9831 185.68 31.3631C186.433 32.7365 187.443 33.8065 188.71 34.5731C189.977 35.3465 191.38 35.7331 192.92 35.7331C194.46 35.7331 195.86 35.3465 197.12 34.5731C198.387 33.8065 199.397 32.7365 200.15 31.3631C200.903 29.9831 201.28 28.3765 201.28 26.5431ZM216.68 41.2331C215.727 41.2331 214.937 40.9131 214.31 40.2731C213.69 39.6265 213.38 38.8298 213.38 37.8831V15.1631C213.38 14.2098 213.69 13.4131 214.31 12.7731C214.937 12.1265 215.727 11.8031 216.68 11.8031C217.633 11.8031 218.42 12.1265 219.04 12.7731C219.667 13.4131 219.98 14.2098 219.98 15.1631V20.3331L219.59 16.6431C219.997 15.7631 220.52 14.9865 221.16 14.3131C221.8 13.6331 222.523 13.0631 223.33 12.6031C224.137 12.1431 225 11.8065 225.92 11.5931C226.833 11.3665 227.75 11.2531 228.67 11.2531C229.77 11.2531 230.693 11.5665 231.44 12.1931C232.193 12.8131 232.57 13.5465 232.57 14.3931C232.57 15.6065 232.26 16.4765 231.64 17.0031C231.013 17.5365 230.333 17.8031 229.6 17.8031C228.907 17.8031 228.273 17.6731 227.7 17.4131C227.133 17.1598 226.483 17.0331 225.75 17.0331C225.09 17.0331 224.42 17.1898 223.74 17.5031C223.067 17.8098 222.443 18.2965 221.87 18.9631C221.303 19.6165 220.847 20.4298 220.5 21.4031C220.153 22.3765 219.98 23.5231 219.98 24.8431V37.8831C219.98 38.8298 219.667 39.6265 219.04 40.2731C218.42 40.9131 217.633 41.2331 216.68 41.2331ZM260.4 11.2531C261.353 11.2531 262.143 11.5665 262.77 12.1931C263.39 12.8131 263.7 13.6198 263.7 14.6131V37.8831C263.7 38.8298 263.39 39.6265 262.77 40.2731C262.143 40.9131 261.353 41.2331 260.4 41.2331C259.447 41.2331 258.66 40.9131 258.04 40.2731C257.413 39.6265 257.1 38.8298 257.1 37.8831V35.1831L258.31 35.6831C258.31 36.1565 258.053 36.7331 257.54 37.4131C257.027 38.0865 256.33 38.7565 255.45 39.4231C254.57 40.0831 253.533 40.6398 252.34 41.0931C251.153 41.5531 249.863 41.7831 248.47 41.7831C245.937 41.7831 243.643 41.1331 241.59 39.8331C239.537 38.5331 237.913 36.7365 236.72 34.4431C235.533 32.1498 234.94 29.5165 234.94 26.5431C234.94 23.5365 235.533 20.8898 236.72 18.6031C237.913 16.3098 239.52 14.5131 241.54 13.2131C243.553 11.9065 245.79 11.2531 248.25 11.2531C249.823 11.2531 251.27 11.4931 252.59 11.9731C253.91 12.4465 255.057 13.0498 256.03 13.7831C257.003 14.5231 257.753 15.2665 258.28 16.0131C258.813 16.7665 259.08 17.3998 259.08 17.9131L257.1 18.6231V14.6131C257.1 13.6598 257.413 12.8631 258.04 12.2231C258.66 11.5765 259.447 11.2531 260.4 11.2531ZM249.29 35.7331C250.903 35.7331 252.317 35.3298 253.53 34.5231C254.737 33.7165 255.68 32.6165 256.36 31.2231C257.04 29.8298 257.38 28.2698 257.38 26.5431C257.38 24.7898 257.04 23.2165 256.36 21.8231C255.68 20.4298 254.737 19.3298 253.53 18.5231C252.317 17.7098 250.903 17.3031 249.29 17.3031C247.717 17.3031 246.323 17.7098 245.11 18.5231C243.903 19.3298 242.96 20.4298 242.28 21.8231C241.6 23.2165 241.26 24.7898 241.26 26.5431C241.26 28.2698 241.6 29.8298 242.28 31.2231C242.96 32.6165 243.903 33.7165 245.11 34.5231C246.323 35.3298 247.717 35.7331 249.29 35.7331Z" fill="white"/>
<path d="M107.628 53.7769C107.628 54.4435 107.385 54.9635 106.898 55.3369C106.411 55.7102 105.758 55.8969 104.938 55.8969C104.518 55.8969 104.128 55.8635 103.768 55.7969C103.415 55.7369 103.118 55.6502 102.878 55.5369V54.6269C103.131 54.7402 103.445 54.8435 103.818 54.9369C104.191 55.0235 104.578 55.0669 104.978 55.0669C105.545 55.0669 105.968 54.9602 106.248 54.7469C106.535 54.5269 106.678 54.2302 106.678 53.8569C106.678 53.6102 106.625 53.4035 106.518 53.2369C106.411 53.0702 106.231 52.9135 105.978 52.7669C105.718 52.6269 105.361 52.4735 104.908 52.3069C104.268 52.0802 103.785 51.7969 103.458 51.4569C103.131 51.1235 102.968 50.6635 102.968 50.0769C102.968 49.6769 103.071 49.3369 103.278 49.0569C103.478 48.7702 103.761 48.5502 104.128 48.3969C104.488 48.2435 104.901 48.1669 105.368 48.1669C105.781 48.1669 106.161 48.2035 106.508 48.2769C106.855 48.3569 107.168 48.4602 107.448 48.5869L107.148 49.3969C106.888 49.2835 106.608 49.1869 106.308 49.1069C106.001 49.0335 105.681 48.9969 105.348 48.9969C104.881 48.9969 104.528 49.0969 104.288 49.2969C104.048 49.4969 103.928 49.7602 103.928 50.0869C103.928 50.3402 103.981 50.5502 104.088 50.7169C104.195 50.8902 104.365 51.0435 104.598 51.1769C104.838 51.3102 105.161 51.4535 105.568 51.6069C106.015 51.7669 106.388 51.9402 106.688 52.1269C106.995 52.3135 107.228 52.5369 107.388 52.7969C107.548 53.0569 107.628 53.3835 107.628 53.7769ZM109.938 47.7869V50.1269C109.938 50.4135 109.921 50.6769 109.888 50.9169H109.948C110.135 50.6302 110.385 50.4135 110.698 50.2669C111.011 50.1202 111.348 50.0469 111.708 50.0469C112.395 50.0469 112.911 50.2102 113.258 50.5369C113.605 50.8635 113.778 51.3869 113.778 52.1069V55.7869H112.858V52.1769C112.858 51.2702 112.438 50.8169 111.598 50.8169C110.965 50.8169 110.531 50.9935 110.298 51.3469C110.058 51.7002 109.938 52.2069 109.938 52.8669V55.7869H109.018V47.7869H109.938ZM120.428 52.9569C120.428 53.8902 120.191 54.6135 119.718 55.1269C119.245 55.6402 118.605 55.8969 117.798 55.8969C117.298 55.8969 116.855 55.7802 116.468 55.5469C116.075 55.3202 115.768 54.9869 115.548 54.5469C115.321 54.1069 115.208 53.5769 115.208 52.9569C115.208 52.0235 115.441 51.3035 115.908 50.7969C116.381 50.2902 117.021 50.0369 117.828 50.0369C118.341 50.0369 118.791 50.1502 119.178 50.3769C119.571 50.6035 119.878 50.9335 120.098 51.3669C120.318 51.8002 120.428 52.3302 120.428 52.9569ZM116.168 52.9569C116.168 53.6235 116.298 54.1502 116.558 54.5369C116.825 54.9302 117.245 55.1269 117.818 55.1269C118.385 55.1269 118.801 54.9302 119.068 54.5369C119.335 54.1502 119.468 53.6235 119.468 52.9569C119.468 52.2902 119.335 51.7669 119.068 51.3869C118.801 51.0069 118.381 50.8169 117.808 50.8169C117.235 50.8169 116.818 51.0069 116.558 51.3869C116.298 51.7669 116.168 52.2902 116.168 52.9569ZM124.578 50.0369C125.271 50.0369 125.831 50.2802 126.258 50.7669C126.685 51.2469 126.898 51.9769 126.898 52.9569C126.898 53.9169 126.685 54.6469 126.258 55.1469C125.831 55.6469 125.268 55.8969 124.568 55.8969C124.135 55.8969 123.775 55.8135 123.488 55.6469C123.208 55.4802 122.985 55.2869 122.818 55.0669H122.758C122.771 55.1869 122.785 55.3402 122.798 55.5269C122.811 55.7069 122.818 55.8635 122.818 55.9969V58.3169H121.898V50.1469H122.648L122.778 50.9069H122.818C122.991 50.6669 123.215 50.4602 123.488 50.2869C123.761 50.1202 124.125 50.0369 124.578 50.0369ZM124.408 50.8169C123.835 50.8169 123.431 50.9769 123.198 51.2969C122.958 51.6235 122.831 52.1169 122.818 52.7769V52.9569C122.818 53.6502 122.935 54.1835 123.168 54.5569C123.395 54.9369 123.815 55.1269 124.428 55.1269C124.775 55.1269 125.058 55.0302 125.278 54.8369C125.498 54.6502 125.665 54.3935 125.778 54.0669C125.885 53.7402 125.938 53.3669 125.938 52.9469C125.938 52.3002 125.815 51.7835 125.568 51.3969C125.315 51.0102 124.928 50.8169 124.408 50.8169ZM131.058 50.0369C131.751 50.0369 132.311 50.2802 132.738 50.7669C133.165 51.2469 133.378 51.9769 133.378 52.9569C133.378 53.9169 133.165 54.6469 132.738 55.1469C132.311 55.6469 131.748 55.8969 131.048 55.8969C130.615 55.8969 130.255 55.8135 129.968 55.6469C129.681 55.4802 129.458 55.2869 129.298 55.0669H129.238C129.251 55.1869 129.265 55.3402 129.278 55.5269C129.291 55.7069 129.298 55.8635 129.298 55.9969V58.3169H128.368V50.1469H129.128L129.258 50.9069H129.298C129.465 50.6669 129.685 50.4602 129.958 50.2869C130.231 50.1202 130.598 50.0369 131.058 50.0369ZM130.888 50.8169C130.315 50.8169 129.908 50.9769 129.668 51.2969C129.435 51.6235 129.311 52.1169 129.298 52.7769V52.9569C129.298 53.6502 129.411 54.1835 129.638 54.5569C129.865 54.9369 130.288 55.1269 130.908 55.1269C131.255 55.1269 131.538 55.0302 131.758 54.8369C131.978 54.6502 132.141 54.3935 132.248 54.0669C132.361 53.7402 132.418 53.3669 132.418 52.9469C132.418 52.3002 132.291 51.7835 132.038 51.3969C131.791 51.0102 131.408 50.8169 130.888 50.8169ZM135.318 48.0269C135.458 48.0269 135.585 48.0735 135.698 48.1669C135.805 48.2602 135.858 48.4102 135.858 48.6169C135.858 48.8102 135.805 48.9569 135.698 49.0569C135.585 49.1569 135.458 49.2069 135.318 49.2069C135.165 49.2069 135.035 49.1569 134.928 49.0569C134.828 48.9569 134.778 48.8102 134.778 48.6169C134.778 48.4102 134.828 48.2602 134.928 48.1669C135.035 48.0735 135.165 48.0269 135.318 48.0269ZM134.848 50.1469H135.778V55.7869H134.848V50.1469ZM140.278 50.0369C140.958 50.0369 141.468 50.2002 141.808 50.5269C142.155 50.8535 142.328 51.3802 142.328 52.1069V55.7869H141.408V52.1769C141.408 51.2702 140.988 50.8169 140.148 50.8169C139.521 50.8169 139.088 50.9935 138.848 51.3469C138.608 51.6935 138.488 52.1969 138.488 52.8569V55.7869H137.568V50.1469H138.308L138.448 50.9069H138.498C138.685 50.6135 138.938 50.3969 139.258 50.2569C139.585 50.1102 139.925 50.0369 140.278 50.0369ZM146.078 50.0369C146.445 50.0369 146.778 50.1069 147.078 50.2469C147.378 50.3869 147.635 50.6002 147.848 50.8869H147.898L148.018 50.1469H148.758V55.8769C148.758 56.6902 148.555 57.3002 148.148 57.7069C147.735 58.1135 147.095 58.3169 146.228 58.3169C145.401 58.3169 144.725 58.1969 144.198 57.9569V57.1069C144.751 57.4002 145.448 57.5469 146.288 57.5469C146.768 57.5469 147.148 57.4035 147.428 57.1169C147.708 56.8369 147.848 56.4502 147.848 55.9569V55.7369C147.848 55.6502 147.851 55.5269 147.858 55.3669C147.865 55.2135 147.871 55.1035 147.878 55.0369H147.828C147.455 55.6102 146.875 55.8969 146.088 55.8969C145.355 55.8969 144.785 55.6402 144.378 55.1269C143.965 54.6135 143.758 53.8969 143.758 52.9769C143.758 52.0769 143.965 51.3635 144.378 50.8369C144.785 50.3035 145.351 50.0369 146.078 50.0369ZM146.198 50.8169C145.731 50.8169 145.368 51.0035 145.108 51.3769C144.848 51.7569 144.718 52.2935 144.718 52.9869C144.718 53.6802 144.845 54.2102 145.098 54.5769C145.358 54.9502 145.731 55.1369 146.218 55.1369C146.791 55.1369 147.208 54.9835 147.468 54.6769C147.728 54.3702 147.858 53.8769 147.858 53.1969V52.9769C147.858 52.2035 147.725 51.6502 147.458 51.3169C147.191 50.9835 146.771 50.8169 146.198 50.8169ZM155.598 55.1369C155.738 55.1369 155.881 55.1235 156.028 55.0969C156.175 55.0702 156.295 55.0435 156.388 55.0169V55.7269C156.288 55.7735 156.148 55.8135 155.968 55.8469C155.781 55.8802 155.605 55.8969 155.438 55.8969C155.145 55.8969 154.871 55.8435 154.618 55.7369C154.371 55.6369 154.171 55.4602 154.018 55.2069C153.865 54.9535 153.788 54.6002 153.788 54.1469V50.8569H152.978V50.4169L153.798 50.0469L154.158 48.8469H154.708V50.1469H156.338V50.8569H154.708V54.1269C154.708 54.4669 154.791 54.7202 154.958 54.8869C155.125 55.0535 155.338 55.1369 155.598 55.1369ZM158.438 47.7869V50.1269C158.438 50.4135 158.421 50.6769 158.388 50.9169H158.448C158.628 50.6302 158.875 50.4135 159.188 50.2669C159.501 50.1202 159.841 50.0469 160.208 50.0469C160.895 50.0469 161.411 50.2102 161.758 50.5369C162.098 50.8635 162.268 51.3869 162.268 52.1069V55.7869H161.358V52.1769C161.358 51.2702 160.935 50.8169 160.088 50.8169C159.461 50.8169 159.028 50.9935 158.788 51.3469C158.555 51.7002 158.438 52.2069 158.438 52.8669V55.7869H157.508V47.7869H158.438ZM166.158 50.0469C166.845 50.0469 167.355 50.1969 167.688 50.4969C168.015 50.8035 168.178 51.2869 168.178 51.9469V55.7869H167.508L167.328 54.9869H167.288C167.041 55.2935 166.781 55.5202 166.508 55.6669C166.241 55.8202 165.868 55.8969 165.388 55.8969C164.875 55.8969 164.451 55.7602 164.118 55.4869C163.778 55.2135 163.608 54.7902 163.608 54.2169C163.608 53.6569 163.828 53.2235 164.268 52.9169C164.715 52.6102 165.398 52.4435 166.318 52.4169L167.278 52.3869V52.0469C167.278 51.5802 167.175 51.2535 166.968 51.0669C166.761 50.8869 166.475 50.7969 166.108 50.7969C165.808 50.7969 165.525 50.8402 165.258 50.9269C164.991 51.0135 164.745 51.1135 164.518 51.2269L164.228 50.5269C164.475 50.3935 164.768 50.2802 165.108 50.1869C165.441 50.0935 165.791 50.0469 166.158 50.0469ZM167.268 53.0269L166.428 53.0569C165.728 53.0835 165.241 53.1969 164.968 53.3969C164.701 53.5902 164.568 53.8669 164.568 54.2269C164.568 54.5469 164.665 54.7802 164.858 54.9269C165.051 55.0735 165.298 55.1469 165.598 55.1469C166.078 55.1469 166.475 55.0135 166.788 54.7469C167.108 54.4869 167.268 54.0835 167.268 53.5369V53.0269ZM171.808 55.1369C171.955 55.1369 172.101 55.1235 172.248 55.0969C172.395 55.0702 172.511 55.0435 172.598 55.0169V55.7269C172.505 55.7735 172.365 55.8135 172.178 55.8469C171.998 55.8802 171.825 55.8969 171.658 55.8969C171.358 55.8969 171.085 55.8435 170.838 55.7369C170.591 55.6369 170.388 55.4602 170.228 55.2069C170.075 54.9535 169.998 54.6002 169.998 54.1469V50.8569H169.198V50.4169L170.008 50.0469L170.378 48.8469H170.928V50.1469H172.558V50.8569H170.928V54.1269C170.928 54.4669 171.011 54.7202 171.178 54.8869C171.338 55.0535 171.548 55.1369 171.808 55.1369ZM177.808 47.7869V51.9669C177.808 52.0802 177.801 52.2269 177.788 52.4069C177.781 52.5869 177.771 52.7435 177.758 52.8769H177.808C177.848 52.8235 177.911 52.7435 177.998 52.6369C178.078 52.5302 178.161 52.4235 178.248 52.3169C178.341 52.2102 178.418 52.1202 178.478 52.0469L180.278 50.1469H181.368L179.078 52.5569L181.518 55.7869H180.408L178.448 53.1569L177.808 53.7169V55.7869H176.888V47.7869H177.808ZM185.228 50.0369C185.901 50.0369 186.411 50.2002 186.758 50.5269C187.098 50.8535 187.268 51.3802 187.268 52.1069V55.7869H186.358V52.1769C186.358 51.2702 185.935 50.8169 185.088 50.8169C184.468 50.8169 184.038 50.9935 183.798 51.3469C183.558 51.6935 183.438 52.1969 183.438 52.8569V55.7869H182.508V50.1469H183.258L183.398 50.9069H183.448C183.635 50.6135 183.888 50.3969 184.208 50.2569C184.528 50.1102 184.868 50.0369 185.228 50.0369ZM193.928 52.9569C193.928 53.8902 193.691 54.6135 193.218 55.1269C192.745 55.6402 192.105 55.8969 191.298 55.8969C190.798 55.8969 190.355 55.7802 189.968 55.5469C189.575 55.3202 189.265 54.9869 189.038 54.5469C188.818 54.1069 188.708 53.5769 188.708 52.9569C188.708 52.0235 188.941 51.3035 189.408 50.7969C189.881 50.2902 190.521 50.0369 191.328 50.0369C191.841 50.0369 192.291 50.1502 192.678 50.3769C193.071 50.6035 193.378 50.9335 193.598 51.3669C193.818 51.8002 193.928 52.3302 193.928 52.9569ZM189.668 52.9569C189.668 53.6235 189.798 54.1502 190.058 54.5369C190.318 54.9302 190.738 55.1269 191.318 55.1269C191.885 55.1269 192.301 54.9302 192.568 54.5369C192.835 54.1502 192.968 53.6235 192.968 52.9569C192.968 52.2902 192.835 51.7669 192.568 51.3869C192.301 51.0069 191.881 50.8169 191.308 50.8169C190.728 50.8169 190.308 51.0069 190.048 51.3869C189.795 51.7669 189.668 52.2902 189.668 52.9569ZM199.798 55.7769L198.828 52.5969C198.735 52.3102 198.655 52.0269 198.588 51.7469C198.521 51.4735 198.471 51.2569 198.438 51.0969H198.398C198.365 51.2569 198.318 51.4735 198.258 51.7469C198.191 52.0269 198.111 52.3135 198.018 52.6069L197.008 55.7769H195.948L194.398 50.1269H195.358L196.138 53.1469C196.218 53.4469 196.291 53.7502 196.358 54.0569C196.431 54.3702 196.481 54.6269 196.508 54.8269H196.548C196.575 54.7069 196.608 54.5602 196.648 54.3869C196.688 54.2135 196.731 54.0302 196.778 53.8369C196.831 53.6435 196.881 53.4702 196.928 53.3169L197.928 50.1269H198.938L199.908 53.3169C199.988 53.5502 200.065 53.8069 200.138 54.0869C200.211 54.3735 200.261 54.6169 200.288 54.8169H200.328C200.348 54.6435 200.398 54.4002 200.478 54.0869C200.551 53.7802 200.628 53.4669 200.708 53.1469L201.498 50.1269H202.448L200.878 55.7769H199.798ZM207.138 54.2269C207.138 54.7735 206.935 55.1869 206.528 55.4669C206.115 55.7535 205.565 55.8969 204.878 55.8969C204.485 55.8969 204.148 55.8635 203.868 55.7969C203.581 55.7369 203.328 55.6502 203.108 55.5369V54.6869C203.335 54.8002 203.608 54.9069 203.928 55.0069C204.248 55.1002 204.571 55.1469 204.898 55.1469C205.371 55.1469 205.715 55.0702 205.928 54.9169C206.135 54.7635 206.238 54.5635 206.238 54.3169C206.238 54.1769 206.201 54.0502 206.128 53.9369C206.048 53.8235 205.908 53.7102 205.708 53.5969C205.508 53.4835 205.221 53.3569 204.848 53.2169C204.481 53.0769 204.168 52.9369 203.908 52.7969C203.648 52.6569 203.448 52.4869 203.308 52.2869C203.168 52.0935 203.098 51.8435 203.098 51.5369C203.098 51.0569 203.295 50.6869 203.688 50.4269C204.075 50.1669 204.585 50.0369 205.218 50.0369C205.565 50.0369 205.885 50.0702 206.178 50.1369C206.478 50.2035 206.758 50.2969 207.018 50.4169L206.698 51.1569C206.465 51.0569 206.218 50.9702 205.958 50.8969C205.698 50.8302 205.431 50.7969 205.158 50.7969C204.778 50.7969 204.488 50.8569 204.288 50.9769C204.088 51.1035 203.988 51.2702 203.988 51.4769C203.988 51.6302 204.031 51.7635 204.118 51.8769C204.211 51.9835 204.365 52.0869 204.578 52.1869C204.791 52.2935 205.078 52.4169 205.438 52.5569C205.798 52.6902 206.105 52.8269 206.358 52.9669C206.611 53.1069 206.805 53.2769 206.938 53.4769C207.071 53.6769 207.138 53.9269 207.138 54.2269ZM213.048 55.8069L210.778 50.1469H211.768L212.988 53.3569C213.095 53.6369 213.191 53.9035 213.278 54.1569C213.358 54.4169 213.421 54.6602 213.468 54.8869H213.508C213.548 54.7135 213.615 54.4869 213.708 54.2069C213.795 53.9202 213.888 53.6335 213.988 53.3469L215.138 50.1469H216.138L213.708 56.5669C213.508 57.1002 213.251 57.5235 212.938 57.8369C212.631 58.1569 212.201 58.3169 211.648 58.3169C211.481 58.3169 211.335 58.3069 211.208 58.2869C211.081 58.2669 210.975 58.2469 210.888 58.2269V57.4969C210.961 57.5102 211.051 57.5235 211.158 57.5369C211.271 57.5502 211.388 57.5569 211.508 57.5569C211.828 57.5569 212.088 57.4669 212.288 57.2869C212.488 57.1002 212.645 56.8569 212.758 56.5569L213.048 55.8069ZM221.938 52.9569C221.938 53.8902 221.701 54.6135 221.228 55.1269C220.755 55.6402 220.115 55.8969 219.308 55.8969C218.808 55.8969 218.365 55.7802 217.978 55.5469C217.585 55.3202 217.278 54.9869 217.058 54.5469C216.831 54.1069 216.718 53.5769 216.718 52.9569C216.718 52.0235 216.955 51.3035 217.428 50.7969C217.895 50.2902 218.531 50.0369 219.338 50.0369C219.851 50.0369 220.305 50.1502 220.698 50.3769C221.085 50.6035 221.388 50.9335 221.608 51.3669C221.828 51.8002 221.938 52.3302 221.938 52.9569ZM217.678 52.9569C217.678 53.6235 217.808 54.1502 218.068 54.5369C218.335 54.9302 218.755 55.1269 219.328 55.1269C219.895 55.1269 220.311 54.9302 220.578 54.5369C220.845 54.1502 220.978 53.6235 220.978 52.9569C220.978 52.2902 220.845 51.7669 220.578 51.3869C220.311 51.0069 219.891 50.8169 219.318 50.8169C218.745 50.8169 218.328 51.0069 218.068 51.3869C217.808 51.7669 217.678 52.2902 217.678 52.9569ZM227.198 50.1469H228.128V55.7869H227.368L227.228 55.0369H227.188C227.001 55.3302 226.748 55.5469 226.428 55.6869C226.108 55.8269 225.765 55.8969 225.398 55.8969C224.718 55.8969 224.205 55.7335 223.858 55.4069C223.511 55.0802 223.338 54.5569 223.338 53.8369V50.1469H224.278V53.7769C224.278 54.6769 224.695 55.1269 225.528 55.1269C226.155 55.1269 226.591 54.9502 226.838 54.5969C227.078 54.2435 227.198 53.7369 227.198 53.0769V50.1469Z" fill="#FF0000"/>
<defs>
<clipPath id="clip0_1_34">
<rect width="60" height="60" fill="white"/>
</clipPath>
</defs>
</svg>
